# xmcd
#
# Track frame offsets: 
#        150
#        13663
#        30205
#        48238
#        64463
#        81928
#        94093
#        109148
#        127623
#        141783
#        156035
#        172223
#
# Disc length: 2487 seconds
#
# Revision: 10
# Processed by: cddbd v1.5.2PL0 Copyright (c) Steve Scherf et al.
# Submitted via: ExactAudioCopyFreeDBPlugin 1.0
#
DISCID=9509b50c
DTITLE=Emmylou Harris - Duets
DYEAR=1990
DGENRE=Country
TTITLE0=The Price I Pay  [with DESERT ROSE BAND]
TTITLE1=Love Hurts  [with GRAM PARSONS]
TTITLE2=That Lovin' You Feelin' Again  [with ROY ORBISON]
TTITLE3=We Believe In Happy Endings  [with EARL THOMAS CONLEY]
TTITLE4=Thing About You  [with SOUTHERN PACIFIC]
TTITLE5=Star Of Bethlehem  [with NEIL YOUNG]
TTITLE6=All Fall Down  [with GEORGE JONES]
TTITLE7=Wild Montana Skies  [with JOHN DENVER]
TTITLE8=Green Pastures  [with RICKY SKAGGS]
TTITLE9=Gulf Coast Highway  [with WILLIE NELSON]
TTITLE10=If I Needed You  [with DON WILLIAMS]
TTITLE11=Evangeline  [with THE BAND]
EXTD=
EXTT0=
EXTT1=
EXTT2=
EXTT3=
EXTT4=
EXTT5=
EXTT6=
EXTT7=
EXTT8=
EXTT9=
EXTT10=
EXTT11=
PLAYORDER=
